<svg width="17" height="38" viewBox="0 0 17 38" fill="none" xmlns="http://www.w3.org/2000/svg">
<path d="M1.29458 16.9412L13.0667 1.1596C13.2601 0.897795 13.4901 0.689998 13.7436 0.548191C13.997 0.406384 14.2689 0.333374 14.5435 0.333374C14.818 0.333374 15.0899 0.406384 15.3433 0.548191C15.5968 0.689998 15.8268 0.897795 16.0202 1.1596C16.4076 1.68294 16.625 2.39088 16.625 3.1288C16.625 3.86673 16.4076 4.57467 16.0202 5.09801L5.72474 19.064L16.0202 32.8903C16.4076 33.4137 16.625 34.1216 16.625 34.8595C16.625 35.5975 16.4076 36.3054 16.0202 36.8288C15.8276 37.0927 15.5978 37.3026 15.3444 37.4465C15.0909 37.5903 14.8186 37.6652 14.5435 37.6667C14.2683 37.6652 13.9961 37.5903 13.7426 37.4465C13.4891 37.3026 13.2594 37.0927 13.0667 36.8288L1.29458 21.0472C1.08346 20.7856 0.914976 20.4682 0.799735 20.1148C0.684494 19.7615 0.625 19.3799 0.625 18.9942C0.625 18.6084 0.684494 18.2269 0.799735 17.8735C0.914976 17.5202 1.08346 17.2027 1.29458 16.9412Z" fill="#991231"/>
</svg>
