<svg width="17" height="38" viewBox="0 0 17 38" fill="none" xmlns="http://www.w3.org/2000/svg">
<path d="M15.9733 16.9412L4.20114 1.1596C4.00779 0.897795 3.77775 0.689998 3.5243 0.548191C3.27084 0.406384 2.99899 0.333374 2.72442 0.333374C2.44985 0.333374 2.178 0.406384 1.92454 0.548191C1.67109 0.689998 1.44105 0.897795 1.2477 1.1596C0.860318 1.68294 0.642883 2.39088 0.642883 3.1288C0.642883 3.86673 0.860318 4.57467 1.2477 5.09801L11.5431 19.064L1.2477 32.8903C0.860318 33.4137 0.642883 34.1216 0.642883 34.8596C0.642883 35.5975 0.860318 36.3054 1.2477 36.8288C1.44033 37.0927 1.67004 37.3026 1.92353 37.4465C2.17701 37.5903 2.44923 37.6652 2.72442 37.6667C2.9996 37.6652 3.27182 37.5903 3.52531 37.4465C3.7788 37.3026 4.00851 37.0927 4.20114 36.8288L15.9733 21.0472C16.1844 20.7856 16.3529 20.4682 16.4681 20.1148C16.5834 19.7615 16.6429 19.3799 16.6429 18.9942C16.6429 18.6084 16.5834 18.2269 16.4681 17.8735C16.3529 17.5202 16.1844 17.2027 15.9733 16.9412Z" fill="#991231"/>
</svg>
