<svg width="49" height="48" viewBox="0 0 49 48" fill="none" xmlns="http://www.w3.org/2000/svg">
<g clip-path="url(#clip0_419_258494)">
<path d="M24.5 4C13.454 4 4.5 12.954 4.5 24C4.5 35.046 13.454 44 24.5 44C35.546 44 44.5 35.046 44.5 24C44.5 12.954 35.546 4 24.5 4ZM26.5 39.861V28H31.5V24H26.5V21C26.5 19.897 27.397 19 28.5 19H31.5V15H28.5C25.191 15 22.5 17.691 22.5 21V24H17.5V28H22.5V39.861C14.62 38.872 8.5 32.144 8.5 24C8.5 15.177 15.678 8 24.5 8C33.322 8 40.5 15.177 40.5 24C40.5 32.144 34.38 38.872 26.5 39.861Z" fill="white"/>
</g>
<defs>
<clipPath id="clip0_419_258494">
<rect width="48" height="48" fill="white" transform="translate(0.5)"/>
</clipPath>
</defs>
</svg>
