<svg width="49" height="48" viewBox="0 0 49 48" fill="none" xmlns="http://www.w3.org/2000/svg">
<g clip-path="url(#clip0_419_258502)">
<path d="M36.519 8C37.5744 8.00132 38.5862 8.42117 39.3325 9.16747C40.0788 9.91376 40.4987 10.9256 40.5 11.981V36.019C40.4987 37.0744 40.0788 38.0862 39.3325 38.8325C38.5862 39.5788 37.5744 39.9987 36.519 40H12.481C11.4256 39.9987 10.4138 39.5788 9.66747 38.8325C8.92117 38.0862 8.50132 37.0744 8.5 36.019V11.981C8.50132 10.9256 8.92117 9.91376 9.66747 9.16747C10.4138 8.42117 11.4256 8.00132 12.481 8H36.519ZM36.519 4H12.481C11.4329 3.99987 10.395 4.20621 9.42665 4.60725C8.45829 5.00829 7.57842 5.59616 6.83729 6.33729C6.09616 7.07842 5.50829 7.95829 5.10725 8.92665C4.70621 9.89501 4.49987 10.9329 4.5 11.981V36.019C4.49987 37.0671 4.70621 38.105 5.10725 39.0734C5.50829 40.0417 6.09616 40.9216 6.83729 41.6627C7.57842 42.4038 8.45829 42.9917 9.42665 43.3927C10.395 43.7938 11.4329 44.0001 12.481 44H36.519C37.5671 44.0001 38.605 43.7938 39.5734 43.3927C40.5417 42.9917 41.4216 42.4038 42.1627 41.6627C42.9038 40.9216 43.4917 40.0417 43.8927 39.0734C44.2938 38.105 44.5001 37.0671 44.5 36.019V11.981C44.5001 10.9329 44.2938 9.89501 43.8927 8.92665C43.4917 7.95829 42.9038 7.07842 42.1627 6.33729C41.4216 5.59616 40.5417 5.00829 39.5734 4.60725C38.605 4.20621 37.5671 3.99987 36.519 4Z" fill="white"/>
<path d="M24.5 34C18.986 34 14.5 29.514 14.5 24C14.5 18.486 18.986 14 24.5 14C30.014 14 34.5 18.486 34.5 24C34.5 29.514 30.014 34 24.5 34ZM24.5 18C21.191 18 18.5 20.691 18.5 24C18.5 27.309 21.191 30 24.5 30C27.809 30 30.5 27.309 30.5 24C30.5 20.691 27.809 18 24.5 18Z" fill="white"/>
<path d="M35.5 15C36.6046 15 37.5 14.1046 37.5 13C37.5 11.8954 36.6046 11 35.5 11C34.3954 11 33.5 11.8954 33.5 13C33.5 14.1046 34.3954 15 35.5 15Z" fill="white"/>
</g>
<defs>
<clipPath id="clip0_419_258502">
<rect width="48" height="48" fill="white" transform="translate(0.5)"/>
</clipPath>
</defs>
</svg>
