<svg width="49" height="48" viewBox="0 0 49 48" fill="none" xmlns="http://www.w3.org/2000/svg">
<g clip-path="url(#clip0_419_258524)">
<path d="M34.519 44H14.481C8.978 44 4.5 39.522 4.5 34.019V13.981C4.5 8.478 8.978 4 14.481 4H34.518C40.022 4 44.5 8.478 44.5 13.981V34.018C44.5 39.522 40.022 44 34.519 44ZM14.481 8C12.8954 8.00212 11.3753 8.63294 10.2541 9.75413C9.13294 10.8753 8.50212 12.3954 8.5 13.981V34.018C8.50212 35.6037 9.1329 37.1239 10.2541 38.2452C11.3752 39.3666 12.8953 39.9976 14.481 40H34.518C36.1037 39.9979 37.6239 39.3671 38.7452 38.2459C39.8666 37.1248 40.4976 35.6047 40.5 34.019V13.981C40.4979 12.3954 39.8671 10.8753 38.7459 9.75413C37.6247 8.63294 36.1046 8.00212 34.519 8H14.481Z" fill="white"/>
<path d="M15.5 17C16.6046 17 17.5 16.1046 17.5 15C17.5 13.8954 16.6046 13 15.5 13C14.3954 13 13.5 13.8954 13.5 15C13.5 16.1046 14.3954 17 15.5 17Z" fill="white"/>
<path d="M13.5 20.0001H17.5V35.0001H13.5V20.0001ZM35.5 35.0001H31.5V27.5291C31.5 25.0421 30.547 23.8831 28.5 23.8831L24.5 23.9611V35.0001H20.5V20.0391L28.461 19.8831H28.462C31.885 19.8831 35.5 21.8921 35.5 27.5291V35.0001Z" fill="white"/>
</g>
<defs>
<clipPath id="clip0_419_258524">
<rect width="48" height="48" fill="white" transform="translate(0.5)"/>
</clipPath>
</defs>
</svg>
