<svg width="49" height="48" viewBox="0 0 49 48" fill="none" xmlns="http://www.w3.org/2000/svg">
<g clip-path="url(#clip0_419_258514)">
<path d="M24.5 38.519C23.329 38.519 12.975 38.497 10.019 37.704C8.92246 37.4096 7.92262 36.8321 7.11979 36.0292C6.31697 35.2264 5.73939 34.2266 5.445 33.13C4.638 30.123 4.63 24.258 4.63 24.01C4.63 23.762 4.639 17.897 5.445 14.89C5.74024 13.7936 6.31821 12.794 7.1211 11.9911C7.92398 11.1882 8.92362 10.6103 10.02 10.315C12.975 9.52202 23.329 9.49902 24.5 9.49902C25.671 9.49902 36.025 9.52102 38.982 10.314C40.0782 10.6091 41.0777 11.1868 41.8805 11.9896C42.6832 12.7923 43.261 13.7918 43.556 14.888V14.889H43.557C44.362 17.896 44.37 23.76 44.37 24.008C44.37 24.256 44.361 30.121 43.556 33.128C43.261 34.2247 42.683 35.2246 41.8799 36.0276C41.0768 36.8305 40.0768 37.4083 38.98 37.703C36.025 38.496 25.671 38.519 24.5 38.519ZM24.5 13.499C20.28 13.499 12.898 13.684 11.054 14.178C10.6357 14.2903 10.2542 14.5107 9.94796 14.817C9.64168 15.1233 9.42133 15.5047 9.309 15.923C8.752 17.998 8.629 22.463 8.629 24.009C8.629 25.555 8.752 30.021 9.308 32.095C9.536 32.945 10.204 33.614 11.052 33.839C12.9 34.334 20.281 34.519 24.5 34.519C28.719 34.519 36.103 34.334 37.947 33.84C38.3653 33.7277 38.7467 33.5074 39.0531 33.2014C39.3595 32.8953 39.5802 32.5142 39.693 32.096C40.248 30.021 40.371 25.555 40.371 24.009C40.371 22.463 40.248 17.997 39.693 15.924L39.692 15.923C39.5795 15.505 39.3592 15.1237 39.0531 14.8175C38.7471 14.5113 38.366 14.2908 37.948 14.178C36.103 13.684 28.72 13.499 24.5 13.499Z" fill="white"/>
<path d="M21.387 30.9859C20.8566 30.9859 20.3479 30.7752 19.9728 30.4001C19.5977 30.025 19.387 29.5163 19.387 28.9859V19.0329C19.3867 18.6817 19.479 18.3367 19.6544 18.0324C19.8299 17.7282 20.0824 17.4756 20.3865 17.3C20.6907 17.1244 21.0357 17.0321 21.3869 17.0322C21.7381 17.0324 22.083 17.1251 22.387 17.3009L31.006 22.2779C31.31 22.4535 31.5625 22.7059 31.738 23.01C31.9135 23.314 32.0059 23.6589 32.0059 24.0099C32.0059 24.361 31.9135 24.7058 31.738 25.0099C31.5625 25.3139 31.31 25.5664 31.006 25.7419L22.387 30.7189C22.077 30.8969 21.732 30.9859 21.387 30.9859ZM23.387 22.4959V25.5209L26.006 24.0079L23.387 22.4959Z" fill="white"/>
</g>
<defs>
<clipPath id="clip0_419_258514">
<rect width="48" height="48" fill="white" transform="translate(0.5)"/>
</clipPath>
</defs>
</svg>
